Coordinates
version=1
nRows=10
nColumns=40
inDegrees=yes

Units are S.I. units (second, meters, Newtons, ...)
Angles are in degrees.

endheader
time	pelvis_tilt	pelvis_list	pelvis_rotation	pelvis_tx	pelvis_ty	pelvis_tz	hip_flexion_r	hip_adduction_r	hip_rotation_r	knee_angle_r	knee_angle_r_beta	ankle_angle_r	subtalar_angle_r	mtp_angle_r	hip_flexion_l	hip_adduction_l	hip_rotation_l	knee_angle_l	knee_angle_l_beta	ankle_angle_l	subtalar_angle_l	mtp_angle_l	lumbar_extension	lumbar_bending	lumbar_rotation	arm_flex_r	arm_add_r	arm_rot_r	elbow_flex_r	pro_sup_r	wrist_flex_r	wrist_dev_r	arm_flex_l	arm_add_l	arm_rot_l	elbow_flex_l	pro_sup_l	wrist_flex_l	wrist_dev_l
     29.21750000	     -1.66406503	     -5.35338469	      5.16061118	      1.02578258	      0.92601504	      0.45342493	     -0.19889488	      3.17243173	    -14.31764754	     12.23220617	     12.23220617	     16.14871765	      4.43422480	     -4.37607451	     28.34054515	     -7.37193795	     -0.84435998	     23.72094523	     23.72094523	      4.01181253	     -9.17107823	      6.46157132	    -10.60315859	      6.44930545	      4.26824138	     33.06589390	    -16.31108546	      4.59113657	     66.42910153	     44.72384615	      0.00000000	      0.00000000	     -6.65391514	     -9.46939185	    -10.61731782	     32.22745454	     47.01616800	      0.00000000	      0.00000000
     29.23000000	     -1.62696763	     -5.42424297	      4.97724777	      1.02801140	      0.92485547	      0.45176325	     -0.68635570	      3.14907061	    -14.07536246	     12.36901170	     12.36901170	     16.66261380	      4.47817912	     -4.49267612	     27.74180620	     -7.39272830	     -0.92438326	     24.22443476	     24.22443476	      4.27893591	     -9.58379115	      6.26849720	    -10.21912243	      6.38289394	      4.31871118	     32.61727663	    -16.03383387	      4.75678146	     66.35456797	     44.71966621	      0.00000000	      0.00000000	     -6.67464845	     -9.57040210	    -10.65377019	     32.22772305	     47.01971640	      0.00000000	      0.00000000
     29.24250000	     -1.47185721	     -5.43613171	      4.81347225	      1.03016775	      0.92395189	      0.45003398	     -1.21989485	      3.04532260	    -13.84092818	     12.64500278	     12.64500278	     17.07741958	      4.43599155	     -4.49176325	     27.18527507	     -7.35095282	     -0.87552423	     24.94346899	     24.94346899	      4.59860998	    -10.11360849	      5.95506048	    -10.00920355	      6.15482844	      4.33594158	     31.94403595	    -15.69168440	      5.01960545	     66.22857649	     44.71351753	      0.00000000	      0.00000000	     -6.68638865	     -9.71153486	    -10.70661868	     32.21924934	     47.02487728	      0.00000000	      0.00000000
     29.25500000	     -1.44061143	     -5.45161997	      4.66589439	      1.03214175	      0.92305659	      0.44806536	     -1.37396853	      2.87701893	    -13.49847938	     13.45380169	     13.45380169	     18.41427199	      4.23971624	     -1.98524718	     26.68270450	     -7.19682672	     -0.51759999	     25.31761964	     25.31761964	      4.28150859	    -11.18689310	      4.09206757	     -9.71434106	      6.00390318	      4.18349081	     31.42762314	    -15.79428765	      6.48457992	     66.28145503	     44.70935427	      0.00000000	      0.00000000	     -6.65502961	     -9.72189790	    -11.33835842	     32.20601551	     47.06049632	      0.00000000	      0.00000000
     29.26750000	     -1.33616934	     -5.38934455	      4.58616757	      1.03402884	      0.92261003	      0.44599379	     -1.78685061	      2.65824160	    -13.32308520	     13.81283741	     13.81283741	     18.67373565	      4.11635195	     -2.04413485	     26.20616406	     -7.02388547	     -0.38383356	     25.80296591	     25.80296591	      4.81260862	    -11.48705928	      3.80082321	     -9.49756322	      5.73045021	      4.04183822	     30.57208865	    -15.48768952	      6.67875103	     66.06821420	     44.70802945	      0.00000000	      0.00000000	     -6.52470666	     -9.87751505	    -11.37791824	     32.23227616	     47.06580323	      0.00000000	      0.00000000
     29.28000000	     -1.29951437	     -5.26011646	      4.49434376	      1.03564894	      0.92230054	      0.44372192	     -1.88540573	      2.29595298	    -13.06253410	     14.60590410	     14.60590410	     18.97400802	      3.72617962	     -2.06319406	     25.85216767	     -6.75092861	     -0.20235302	     26.27596790	     26.27596790	      5.37830113	    -11.85260335	      3.46786531	     -9.29870617	      5.40988537	      3.92410905	     29.71961980	    -15.30386783	      6.90042638	     65.83079976	     44.70880357	      0.00000000	      0.00000000	     -6.29265285	    -10.03521151	    -11.43645090	     32.26184776	     47.07290558	      0.00000000	      0.00000000
     29.29250000	     -1.31962525	     -5.08447594	      4.41151202	      1.03693351	      0.92217500	      0.44130035	     -1.66627795	      1.82262875	    -12.77932850	     15.84024117	     15.84024117	     19.26340807	      3.04825582	     -2.03890790	     25.56438556	     -6.41365573	     -0.06475154	     26.65239474	     26.65239474	      5.91799525	    -12.22048694	      3.15495033	     -9.08165142	      5.05651137	      3.84492549	     28.69463892	    -15.20519914	      7.20293305	     65.53908529	     44.71007238	      0.00000000	      0.00000000	     -5.93988343	    -10.15035642	    -11.50237054	     32.27804002	     47.08011637	      0.00000000	      0.00000000
     29.30500000	     -1.29052235	     -4.96358165	      4.36409218	      1.03807440	      0.92244684	      0.43882216	     -1.45285421	      1.40272624	    -12.55183384	     17.11832640	     17.11832640	     19.34460133	      2.44467926	     -2.05369529	     25.21424628	     -6.14439147	      0.04285481	     26.92446315	     26.92446315	      6.48487722	    -12.45106896	      2.86914740	     -8.95112742	      4.70341920	      3.71312788	     27.59156877	    -15.12338716	      7.51104682	     65.22790454	     44.71081919	      0.00000000	      0.00000000	     -5.52329980	    -10.23448121	    -11.54479185	     32.30123769	     47.08551239	      0.00000000	      0.00000000
     29.31750000	     -1.11010294	     -5.00246657	      4.41844649	      1.03921302	      0.92331696	      0.43609908	     -1.54881243	      1.17965287	    -12.52793192	     18.05686477	     18.05686477	     19.09567930	      2.13976129	     -2.10332453	     24.68249519	     -6.02007208	      0.24169504	     27.08819649	     27.08819649	      7.08571439	    -12.53194064	      2.61057758	     -9.04030610	      4.68890154	      3.36658288	     26.33994057	    -14.87191109	      7.77437104	     64.87063940	     44.70926152	      0.00000000	      0.00000000	     -5.17565796	    -10.26356838	    -11.54465406	     32.39188405	     47.08912445	      0.00000000	      0.00000000
     29.33000000	     -1.25223643	     -4.65306625	      4.22793639	      1.03959360	      0.92362166	      0.43348967	     -0.33162751	      0.28848833	    -12.14542909	     20.81313814	     20.81313814	     19.11618377	      1.01781900	     -2.68353236	     24.42723174	     -5.58278263	     -0.09892955	     27.17137336	     27.17137336	      7.52671545	    -12.46957110	      2.36501157	     -8.85004950	      4.17006815	      3.52921306	     25.18759911	    -15.05072295	      8.12175042	     64.37775718	     44.71445587	      0.00000000	      0.00000000	     -4.51488101	    -10.38865859	    -11.57164061	     32.50656558	     47.09613890	      0.00000000	      0.00000000
